<?xml version="1.0" encoding="UTF-8"?> <svg xmlns="http://www.w3.org/2000/svg" viewBox="0 0 1189 93.49"> <defs> <style>.cls-1{fill:none;stroke:#7b9c86;stroke-linecap:round;stroke-linejoin:round;stroke-width:3px;}</style> </defs> <title>2Монтажная область 30</title> <g id="Слой_2" data-name="Слой 2"> <path class="cls-1" d="M569.41,48.88c5.27-12.2,16.5-20,30.67-25.32s29.72-7.33,45.06-9.32l32-4.13a50.44,50.44,0,0,1-15.58,48.36c-14,12.72-42.88,18.67-62.62,13.43"></path> <path class="cls-1" d="M677,32.6c8.55-5.6,23.83-8.72,34.69-8.57q16.69.22,33.33,1.38A83.21,83.21,0,0,1,733.65,39.5c-7.92,7.68-19.28,18.48-31.38,19.17"></path> <path class="cls-1" d="M583.68,58.67c12.77-11.07,34.59-21.46,53-21.56"></path> <path class="cls-1" d="M523.07,84.87c-13.67-8.64-21.7-22.39-25.07-36.44s-2.53-28.53-1.38-42.82c15.42,16.5,38.59,26.29,60.05,37.1s43,24.34,51.3,44.11"></path> <path class="cls-1" d="M496.66,41.35C477,24,464.56,20.81,444.79,19.6A36.83,36.83,0,0,0,450,52.36c6.89,9.74,18.64,17,31.81,19.64"></path> <path class="cls-1" d="M655.23,63.18c7-2.39,19.87-5.88,27.4-6.51,16.38-1.37,31.86,5.79,46.09,12.71l14.47,7"></path> <path class="cls-1" d="M454,57.16A126.15,126.15,0,0,0,421.45,43.5c-10.72-2.72-23.41-1.93-31.69,4.37-5.14,3.92-7.49,11.8-1.73,15.05,6.14,3.47,14.76-3,13.94-9.15s-7.27-10.67-13.72-13.73c-25.11-11.89-58.06-11.16-82.38,1.83-9.24,4.93-17.72,12.26-18.88,21.37s8.35,19.18,19.12,17.45C315,79.28,320.19,70.43,318,63.13S307.72,50.5,299.08,48.38s-17.9-1.53-26.81-.42c-18.57,2.32-36.69,6.81-55.3,8.87s-38.35,1.53-55-5.68c-12.51-5.41-22.86-16.51-20.07-28.1,3.12-12.93,16.79-18.62,28-15.37C185,12,186.84,26.5,181.41,35.38"></path> <path class="cls-1" d="M204,57.79A54.19,54.19,0,0,0,180.82,77"></path> <path class="cls-1" d="M263.82,49c-10,1.86-19.49-2.76-28.53-10.9"></path> <path class="cls-1" d="M726,46.82c19-7.3,40.83-10.93,59.54-2.85,5.11,2.2,10.16,5.6,12.1,10.82s-.82,12.31-6.32,13.12c-6,.89-10.73-6.34-9.45-12.27s6.44-10.21,11.74-13.16c23.1-12.88,41.54-13.11,67.5-8,22.68,4.43,30.43,13.43,30.25,20.13-.2,7.77-10.14,13.47-16.52,9-5.67-3.94-5.95-12.9-1.92-18.51s11.06-8.31,17.91-9.22c13.76-1.82,27.63,2.4,40.29,8.07s24.66,12.87,37.73,17.55c12.2,4.37,37.45,16,63.69,5.37,11.75-4.75,18.75-18.51,18.75-27.25,0-12.25-6.44-24.26-20.5-22.75S1011.42,34.16,1016,41.59"></path> <path class="cls-1" d="M981.5,40.54s-12,18.13-42.08,7.35"></path> <path class="cls-1" d="M517.21,45.05c1.54,4.18,4.54,7.66,7.65,10.86a122,122,0,0,0,44.19,29"></path> <path class="cls-1" d="M613.1,19.6c-6.44,9.08-10,17.49-13.56,28.29"></path> <path class="cls-1" d="M631.15,16.16S625,24.69,619.67,39.69"></path> <path class="cls-1" d="M536.23,32.58s6.11,15,4.11,35.4"></path> <path class="cls-1" d="M551.8,53s2.56,14.44-.62,23.39"></path> <path class="cls-1" d="M591.08,53S608,62.69,628.33,63"></path> <path class="cls-1" d="M462.67,37.11C464,38.69,482.79,57.26,506.23,68"></path> <path class="cls-1" d="M709.33,37.11S682.83,40.35,666.77,53"></path> <path class="cls-1" d="M475.71,26.61s4.87,9.46,4.91,25.94"></path> <path class="cls-1" d="M173.58,55C123.5,39.57,75,10.11,37,19.6-3.83,29.8,8.87,74.76,36.5,71.2,61.5,68,53,45.8,53,45.8"></path> <path class="cls-1" d="M121.86,35.89S103.5,35.25,90,45.05"></path> <path class="cls-1" d="M1026.17,69C1060,61.69,1100,15.43,1139.33,16.72s38.33,27.22,37,34.59S1165,74.38,1146,71.2s-18.33-20-17.33-25.27"></path> </g> </svg> 