<?xml version="1.0" encoding="UTF-8"?> <svg xmlns="http://www.w3.org/2000/svg" viewBox="0 0 921.77 93.49"> <defs> <style>.cls-1{fill:none;stroke:#7b9c86;stroke-linecap:round;stroke-linejoin:round;stroke-width:3px;}</style> </defs> <title>1Монтажная область 30</title> <g id="Слой_2" data-name="Слой 2"> <path class="cls-1" d="M433.63,48.88c5.27-12.2,16.5-20,30.67-25.32s29.72-7.33,45.06-9.32l32-4.13a50.44,50.44,0,0,1-15.58,48.36c-14,12.72-42.88,18.67-62.62,13.43"></path> <path class="cls-1" d="M541.18,32.6C549.72,27,565,23.88,575.87,24q16.69.22,33.33,1.38A83.21,83.21,0,0,1,597.87,39.5C590,47.18,578.6,58,566.5,58.67"></path> <path class="cls-1" d="M447.9,58.67c12.77-11.07,34.59-21.46,53-21.56"></path> <path class="cls-1" d="M387.29,84.87c-13.67-8.64-21.7-22.39-25.07-36.44S359.7,19.9,360.85,5.61c15.42,16.5,38.59,26.29,60.05,37.1s43,24.34,51.3,44.11"></path> <path class="cls-1" d="M360.88,41.35C341.22,24,328.78,20.81,309,19.6a36.83,36.83,0,0,0,5.25,32.76c6.89,9.74,18.64,17,31.81,19.64"></path> <path class="cls-1" d="M519.45,63.18c7-2.39,19.87-5.88,27.4-6.51,16.38-1.37,31.86,5.79,46.09,12.71l14.47,7"></path> <path class="cls-1" d="M318.25,57.16A126.15,126.15,0,0,0,285.67,43.5C275,40.78,262.26,41.57,254,47.88c-5.14,3.92-7.49,11.8-1.73,15.05,6.14,3.47,14.76-3,13.94-9.15s-7.27-10.67-13.72-13.73c-25.11-11.89-58.06-11.16-82.38,1.83-9.24,4.93-17.72,12.26-18.88,21.37s8.35,19.18,19.12,17.45c8.85-1.42,14.07-10.28,11.83-17.57S171.94,50.5,163.3,48.38s-17.9-1.53-26.81-.42c-18.57,2.32-36.69,6.81-55.3,8.87s-38.35,1.53-55-5.68C13.65,45.74,3.3,34.64,6.1,23c3.12-12.93,16.79-18.62,28-15.37C49.22,12,51.06,26.5,45.63,35.38"></path> <path class="cls-1" d="M68.19,57.79A54.19,54.19,0,0,0,45,77"></path> <path class="cls-1" d="M128,49c-10,1.86-19.49-2.76-28.53-10.9"></path> <path class="cls-1" d="M590.19,46.82c19-7.3,40.83-10.93,59.54-2.85,5.11,2.2,10.16,5.6,12.1,10.82S661,67.09,655.51,67.9c-6,.89-10.73-6.34-9.45-12.27s6.44-10.21,11.74-13.16c23.1-12.88,41.54-13.11,67.5-8,22.68,4.43,30.43,13.43,30.25,20.13-.2,7.77-10.14,13.47-16.52,9-5.67-3.94-5.95-12.9-1.92-18.51s11.06-8.31,17.91-9.22c13.76-1.82,27.63,2.4,40.29,8.07S820,56.81,833,61.48c12.2,4.37,37.45,16,63.69,5.37,11.75-4.75,18.75-18.51,18.75-27.25,0-12.25-6.44-24.26-20.5-22.75s-19.33,17.31-14.74,24.74"></path> <path class="cls-1" d="M845.72,40.54s-12,18.13-42.08,7.35"></path> <path class="cls-1" d="M381.43,45.05c1.54,4.18,4.54,7.66,7.65,10.86a122,122,0,0,0,44.19,29"></path> <path class="cls-1" d="M477.32,19.6c-6.44,9.08-10,17.49-13.56,28.29"></path> <path class="cls-1" d="M495.37,16.16s-6.15,8.53-11.49,23.53"></path> <path class="cls-1" d="M400.45,32.58s6.11,15,4.11,35.4"></path> <path class="cls-1" d="M416,53s2.56,14.44-.62,23.39"></path> <path class="cls-1" d="M455.3,53s16.92,9.67,37.25,10"></path> <path class="cls-1" d="M326.89,37.11C328.22,38.69,347,57.26,370.45,68"></path> <path class="cls-1" d="M573.55,37.11S547.05,40.35,531,53"></path> <path class="cls-1" d="M339.93,26.61s4.87,9.46,4.91,25.94"></path> </g> </svg> 